<svg width="100" height="100" viewBox="0 0 100 100" fill="none" xmlns="http://www.w3.org/2000/svg">
<g clip-path="url(#clip0_2210_207075)">
<path d="M4.1665 23.9582V32.2916L13.7238 41.5416L24.9998 47.9166L27.0832 33.8905L24.9998 20.8332L19.1665 16.4582C12.9842 11.8228 4.1665 16.2343 4.1665 23.9582Z" fill="#C5221F"/>
<path d="M74.9998 20.8332L72.9165 34.0624L74.9998 47.9166L85.2342 42.8489L95.8332 32.2916V23.9582C95.8332 16.2343 87.0155 11.8228 80.8332 16.4582L74.9998 20.8332Z" fill="#FFBA00"/>
<path d="M10.4165 83.3332H24.9998V47.9165L4.1665 32.2915V77.0832C4.1665 80.5363 6.96338 83.3332 10.4165 83.3332Z" fill="#2684FC"/>
<path d="M75 83.3332H89.5833C93.0365 83.3332 95.8333 80.5363 95.8333 77.0832V32.2915L75 47.9165V83.3332Z" fill="#00AC47"/>
<path d="M50 39.5835L25 20.8335V47.9168L50 66.6668L75 47.9168V20.8335L50 39.5835Z" fill="#E94235"/>
</g>
<defs>
<clipPath id="clip0_2210_207075">
<rect width="100" height="100" fill="white"/>
</clipPath>
</defs>
</svg>
