<svg xmlns="http://www.w3.org/2000/svg" width="60" height="60" viewBox="0 0 100 100"><g fill-rule="nonzero" fill="none"><path d="M35.203 35.373l.007-.001c7.049-7.748 18.925-8.657 27.074-2.073h-.001l11.238-11.225.008.007a35.67 35.67 0 00-33.89-7.526 35.613 35.613 0 00-24.218 24.841 25.635 25.635 0 0119.782-4.023z" fill="#EA4335"/><path d="M84.282 39.397a35.666 35.666 0 00-10.753-17.316l-.008-.007-11.238 11.224.001.001a19.751 19.751 0 017.384 15.397v1.98a9.911 9.911 0 018.588 4.946 9.885 9.885 0 01-.001 9.9 9.911 9.911 0 01-8.589 4.946H49.834V86.3h19.834c11.28.005 21.25-7.321 24.6-18.077 3.352-10.756-.696-22.439-9.986-28.827z" fill="#4285F4"/><path d="M49.778 70.468H30.035a9.847 9.847 0 01-4.083-.89l.014.007-11.49 11.476a25.648 25.648 0 0015.556 5.24h19.802V70.468h-.056z" fill="#34A853"/><path d="M35.203 35.373C23.42 32.953 11.53 39.005 6.565 49.948c-4.964 10.943-1.68 23.861 7.91 31.114l11.49-11.477-.013-.006a9.887 9.887 0 01-5.728-10.413 9.896 9.896 0 018.418-8.394 9.905 9.905 0 0110.417 5.737l11.49-11.477a25.807 25.807 0 00-15.346-9.66z" fill="#FBBC05"/></g></svg>