<svg width="102" height="36" viewBox="0 0 102 36" fill="none" xmlns="http://www.w3.org/2000/svg">
<g clip-path="url(#clip0_2210_207272)">
<path d="M1.5 8.6252V11.6252L4.94063 14.9552L9 17.2502L9.75 12.2008L9 7.5002L6.9 5.9252C4.67437 4.25645 1.5 5.84458 1.5 8.6252Z" fill="#C5221F"/>
<path d="M27 7.5002L26.25 12.2627L27 17.2502L30.6844 15.4258L34.5 11.6252V8.6252C34.5 5.84458 31.3256 4.25645 29.1 5.9252L27 7.5002Z" fill="#FFBA00"/>
<path d="M3.75 30H9V17.25L1.5 11.625V27.75C1.5 28.9931 2.50687 30 3.75 30Z" fill="#2684FC"/>
<path d="M27 30H32.25C33.4931 30 34.5 28.9931 34.5 27.75V11.625L27 17.25V30Z" fill="#00AC47"/>
<path d="M18 14.25L9 7.5V17.25L18 24L27 17.25V7.5L18 14.25Z" fill="#E94235"/>
</g>
<path d="M60.742 18.262C60.742 20.462 60.0893 22.2147 58.784 23.52C57.3173 25.0747 55.3887 25.852 52.998 25.852C50.71 25.852 48.774 25.06 47.19 23.476C45.606 21.892 44.814 19.9413 44.814 17.624C44.814 15.3067 45.606 13.356 47.19 11.772C48.774 10.188 50.71 9.396 52.998 9.396C54.1567 9.396 55.2493 9.60133 56.276 10.012C57.3027 10.4227 58.146 11.002 58.806 11.75L57.354 13.202C56.87 12.6153 56.2393 12.1607 55.462 11.838C54.6993 11.5007 53.878 11.332 52.998 11.332C51.282 11.332 49.83 11.926 48.642 13.114C47.4687 14.3167 46.882 15.82 46.882 17.624C46.882 19.428 47.4687 20.9313 48.642 22.134C49.83 23.322 51.282 23.916 52.998 23.916C54.5673 23.916 55.8727 23.476 56.914 22.596C57.9553 21.716 58.5567 20.506 58.718 18.966H52.998V17.074H60.632C60.7053 17.4847 60.742 17.8807 60.742 18.262ZM64.955 25.5H62.931V14.72H64.867V16.216H64.955C65.263 15.688 65.7323 15.248 66.363 14.896C67.0083 14.544 67.6463 14.368 68.277 14.368C69.069 14.368 69.7657 14.5513 70.367 14.918C70.9683 15.2847 71.4083 15.7907 71.687 16.436C72.5817 15.0573 73.821 14.368 75.405 14.368C76.6517 14.368 77.6123 14.7493 78.287 15.512C78.9617 16.2747 79.299 17.36 79.299 18.768V25.5H77.275V19.076C77.275 18.064 77.0917 17.338 76.725 16.898C76.3583 16.4433 75.7423 16.216 74.877 16.216C74.0997 16.216 73.447 16.546 72.919 17.206C72.391 17.866 72.127 18.6433 72.127 19.538V25.5H70.103V19.076C70.103 18.064 69.9197 17.338 69.553 16.898C69.1863 16.4433 68.5703 16.216 67.705 16.216C66.9277 16.216 66.275 16.546 65.747 17.206C65.219 17.866 64.955 18.6433 64.955 19.538V25.5ZM83.1138 22.2C83.1138 22.728 83.3338 23.168 83.7738 23.52C84.2284 23.872 84.7564 24.048 85.3578 24.048C86.2084 24.048 86.9638 23.7327 87.6238 23.102C88.2984 22.4713 88.6358 21.7307 88.6358 20.88C88.0051 20.3813 87.1251 20.132 85.9958 20.132C85.1744 20.132 84.4851 20.33 83.9278 20.726C83.3851 21.122 83.1138 21.6133 83.1138 22.2ZM85.7318 14.368C87.2278 14.368 88.4084 14.7713 89.2738 15.578C90.1391 16.37 90.5718 17.4627 90.5718 18.856V25.5H88.6358V24.004H88.5478C87.7118 25.236 86.5971 25.852 85.2038 25.852C84.0158 25.852 83.0184 25.5 82.2118 24.796C81.4198 24.092 81.0238 23.212 81.0238 22.156C81.0238 21.0413 81.4418 20.154 82.2778 19.494C83.1284 18.834 84.2578 18.504 85.6658 18.504C86.8684 18.504 87.8584 18.724 88.6358 19.164V18.702C88.6358 17.998 88.3571 17.404 87.7998 16.92C87.2424 16.4213 86.5898 16.172 85.8418 16.172C84.7124 16.172 83.8178 16.6487 83.1578 17.602L81.3758 16.48C82.3584 15.072 83.8104 14.368 85.7318 14.368ZM95.5544 11.002C95.5544 11.398 95.4151 11.7353 95.1364 12.014C94.8578 12.2927 94.5204 12.432 94.1244 12.432C93.7284 12.432 93.3911 12.2927 93.1124 12.014C92.8338 11.7353 92.6944 11.398 92.6944 11.002C92.6944 10.606 92.8338 10.2687 93.1124 9.99C93.3911 9.71133 93.7284 9.572 94.1244 9.572C94.5204 9.572 94.8578 9.71133 95.1364 9.99C95.4151 10.2687 95.5544 10.606 95.5544 11.002ZM95.1364 14.72V25.5H93.1124V14.72H95.1364ZM99.8762 9.748V25.5H97.8522V9.748H99.8762Z" fill="#5F6368"/>
<defs>
<clipPath id="clip0_2210_207272">
<rect width="36" height="36" fill="white"/>
</clipPath>
</defs>
</svg>
