<svg xmlns="http://www.w3.org/2000/svg" width="45" height="15" viewBox="0 0 45 15"><g fill="#AFB5BB" fill-rule="evenodd"><path d="M39.615 7.823l3.197-1.328c-.176-.447-.704-.758-1.327-.758-.8 0-1.91.704-1.87 2.086m3.753 1.287l1.219.813c-.393.582-1.341 1.585-2.98 1.585-2.032 0-3.55-1.572-3.55-3.577 0-2.127 1.531-3.576 3.373-3.576 1.856 0 2.764 1.476 3.062 2.276l.163.406-4.782 1.978c.365.718.934 1.084 1.734 1.084.799 0 1.354-.393 1.76-.99M35.688 11.291h1.572V.778h-1.572zM33.105 7.945c0-1.26-.84-2.181-1.91-2.181-1.084 0-1.96.92-1.96 2.18 0 1.247.876 2.155 1.96 2.155 1.07 0 1.91-.908 1.91-2.154zm1.382-3.373v6.42c0 2.642-1.558 3.726-3.4 3.726-1.735 0-2.778-1.165-3.17-2.113l1.368-.569c.244.582.84 1.273 1.802 1.273 1.178 0 1.91-.731 1.91-2.1v-.514h-.054c-.352.433-1.03.813-1.883.813-1.789 0-3.397-1.558-3.397-3.563 0-2.019 1.608-3.59 3.397-3.59.853 0 1.53.379 1.883.799h.054v-.582h1.49zm-9.142 3.36c0-1.288-.93-2.168-2.01-2.168-1.08 0-2.01.88-2.01 2.167 0 1.273.93 2.168 2.01 2.168 1.08 0 2.01-.895 2.01-2.168m1.565 0c0 2.06-1.606 3.577-3.575 3.577-1.97 0-3.576-1.518-3.576-3.577 0-2.072 1.606-3.576 3.576-3.576S26.91 5.859 26.91 7.93m-9.469 0c0-1.287-.93-2.167-2.01-2.167-1.08 0-2.01.88-2.01 2.167 0 1.273.93 2.168 2.01 2.168 1.08 0 2.01-.895 2.01-2.168m1.566 0c0 2.06-1.606 3.577-3.576 3.577S11.856 9.99 11.856 7.93c0-2.072 1.605-3.576 3.575-3.576 1.97 0 3.576 1.504 3.576 3.576m-7.913-2.587c.06.364.086.722.086 1.056 0 1.138-.29 2.547-1.293 3.55-.976 1.016-2.222 1.558-3.875 1.558-3.062 0-5.636-2.493-5.636-5.555C.376 2.892 2.95.4 6.012.4c1.694 0 2.9.663 3.807 1.53L8.749 3a3.868 3.868 0 00-2.737-1.084c-2.236 0-3.983 1.802-3.983 4.037 0 2.236 1.747 4.038 3.983 4.038 1.45 0 2.276-.583 2.804-1.111.434-.434.728-1.058.838-2.018H6.022V5.344h5.072z"/></g></svg>