<svg width="12" height="15" viewBox="0 0 12 15" fill="none" xmlns="http://www.w3.org/2000/svg">
<path d="M4.28667 8.57666L5.83333 7.40333L7.37333 8.57666L6.78667 6.67666L8.33333 5.44999H6.44L5.83333 3.57666L5.22667 5.44999H3.33333L4.87333 6.67666L4.28667 8.57666ZM11.1667 6.11666C11.1667 3.16999 8.78 0.783325 5.83333 0.783325C2.88667 0.783325 0.5 3.16999 0.5 6.11666C0.5 7.46999 1.00667 8.69666 1.83333 9.63666V14.7833L5.83333 13.45L9.83333 14.7833V9.63666C10.66 8.69666 11.1667 7.46999 11.1667 6.11666ZM5.83333 2.11666C8.04 2.11666 9.83333 3.90999 9.83333 6.11666C9.83333 8.32333 8.04 10.1167 5.83333 10.1167C3.62667 10.1167 1.83333 8.32333 1.83333 6.11666C1.83333 3.90999 3.62667 2.11666 5.83333 2.11666Z" fill="#1967D2"/>
</svg>
